<svg xmlns="http://www.w3.org/2000/svg"
     viewBox="0 0 254 254"
     width="254"
     height="254">

<g fill="None" fill-opacity="0.0" stroke="#CFCFCF" stroke-opacity="1.00" stroke-width="0.3"><path d="
M 148.00 107.00 
C 148.10 106.98 148.00 106.00 148.00 106.00
C 144.26 104.74 133.74 110.07 136.75 114.25 C 139.76 118.43 141.33 124.90 147.00 122.00
C 140.23 118.67 139.86 108.65 148.00 107.00 Z"/>
</g>
<g fill="None" fill-opacity="0.0" stroke="#7A7A7A" stroke-opacity="1.00" stroke-width="0.3"><path d="
M 148.00 107.00 
C 149.56 106.66 152.17 107.75 153.00 106.00
C 151.35 106.13 149.65 105.82 148.00 106.00
C 148.00 106.00 148.10 106.98 148.00 107.00 Z"/>
</g>

<g fill="None" fill-opacity="0.0" stroke="#5E7268" stroke-opacity="1.00" stroke-width="0.3"><path d="
M 110.00 119.00
C 111.71 118.71 114.28 118.76 116.00 119.00
C 113.50 118.29 112.57 118.18 110.00 119.00 Z"/>
</g>
<g fill="None" fill-opacity="0.0" stroke="#8C8E8B" stroke-opacity="1.00" stroke-width="0.3"><path d="
M 79.00 121.00
C 79.78 122.94 82.43 121.61 84.00 122.00
C 83.71 120.63 82.29 119.91 81.00 120.00
C 80.88 120.01 79.68 120.95 79.00 121.00 Z"/>
</g>
<g fill="None" fill-opacity="0.0" stroke="#4D4D4E" stroke-opacity="1.00" stroke-width="0.3"><path d="
M 118.00 128.00
C 118.03 122.48 107.97 122.49 108.00 128.00
C 111.33 128.00 114.67 128.00 118.00 128.00 Z"/>
</g>
<g fill="None" fill-opacity="0.0" stroke="#0C0015" stroke-opacity="1.00" stroke-width="0.3"><path d="
M 75.00 126.00
C 75.00 126.00 75.51 125.92 76.00 126.00
C 79.26 126.54 82.48 127.40 86.00 127.00
C 87.44 130.29 84.03 135.40 81.00 132.00
C 81.00 132.00 80.50 131.98 80.00 132.00
C 77.77 132.09 76.05 131.59 74.00 131.00
C 76.49 133.71 81.03 132.90 84.00 135.00
C 91.80 126.68 82.88 124.29 75.00 125.00
C 75.00 125.00 74.75 125.75 75.00 126.00 Z"/>
</g>
<g fill="None" fill-opacity="0.0" stroke="#B7DAC5" stroke-opacity="1.00" stroke-width="0.3"><path d="
M 104.00 170.00
C 109.32 170.20 114.68 170.00 120.00 170.00
C 136.31 169.16 153.43 164.68 167.75 157.75 C 182.08 150.83 193.29 141.81 194.00 125.00
C 186.35 126.95 179.08 128.91 171.69 131.69 C 164.31 134.48 158.90 139.48 150.00 138.00 C 141.10 136.52 143.51 149.20 136.02 152.02 C 128.54 154.85 119.76 152.14 118.00 144.00
C 107.98 139.65 105.79 151.93 98.01 152.99 C 90.23 154.05 84.89 144.33 85.00 138.00
C 75.58 137.45 67.20 133.25 58.00 132.00
C 53.95 157.69 83.33 169.21 104.00 170.00 Z"/>
</g>
<g fill="None" fill-opacity="0.0" stroke="#34114F" stroke-opacity="1.00" stroke-width="0.3"><path d="
M 81.00 132.00
C 84.03 135.40 87.44 130.29 86.00 127.00
C 82.48 127.40 79.26 126.54 76.00 126.00
C 78.15 128.13 81.88 128.09 85.00 128.00
C 85.69 131.16 84.09 132.67 81.00 132.00 Z"/>
</g>
<g fill="None" fill-opacity="0.0" stroke="#3A0F59" stroke-opacity="1.00" stroke-width="0.3"><path d="
M 74.00 131.00
C 76.05 131.59 77.77 132.09 80.00 132.00
C 76.58 130.13 72.07 128.86 68.00 128.00
C 69.76 128.62 71.85 130.38 74.00 131.00 Z"/>
</g>
<g fill="None" fill-opacity="0.0" stroke="#5B6F64" stroke-opacity="1.00" stroke-width="0.3"><path d="
M 103.00 139.00
C 103.74 136.03 103.49 133.95 103.00 131.00
C 103.13 133.54 103.31 136.48 103.00 139.00 Z"/>
</g>
<g fill="None" fill-opacity="0.0" stroke="#9B8284" stroke-opacity="1.00" stroke-width="0.3"><path d="
M 116.00 134.00
C 102.10 131.57 115.81 146.09 116.00 134.00 Z"/>
</g>

<g fill="None" fill-opacity="0.0" stroke="#F5BC66" stroke-opacity="1.00" stroke-width="0.3"><path d="
M 136.00 204.00
C 126.21 205.37 130.20 216.47 131.00 224.00
C 132.37 224.01 138.27 221.70 139.32 223.66 C 140.37 225.63 149.02 221.98 149.00 222.00
C 149.00 215.33 149.00 208.67 149.00 202.00
C 146.99 200.65 138.40 203.67 136.00 204.00 Z"/>
</g>
<g fill="None" fill-opacity="0.0" stroke="#8D6934" stroke-opacity="1.00" stroke-width="0.3"><path d="
M 149.00 222.00
C 150.92 220.34 151.26 203.52 149.00 202.00
C 149.00 208.67 149.00 215.33 149.00 222.00 Z"/>
</g>
<g fill="None" fill-opacity="0.0" stroke="#A47F4C" stroke-opacity="1.00" stroke-width="0.3"><path d="
M 94.00 237.00
C 89.58 235.53 92.80 225.71 92.00 221.00 C 91.20 216.29 92.60 208.03 92.00 203.00
C 89.67 213.68 91.67 226.50 91.00 238.00
C 91.94 238.91 93.76 237.00 94.00 237.00 Z"/>
</g>
<g fill="None" fill-opacity="0.0" stroke="#FBBF66" stroke-opacity="1.00" stroke-width="0.3"><path d="
M 94.00 237.00
C 95.41 237.02 97.68 236.55 99.00 237.00
C 101.32 239.37 102.25 238.17 105.00 238.00
C 107.94 235.56 108.95 238.91 111.00 239.00
C 113.51 238.74 114.75 238.11 116.99 237.01 C 119.23 235.91 120.93 239.08 123.00 239.00
C 125.32 228.57 123.34 216.18 124.00 205.00
C 120.00 205.00 116.00 205.00 112.00 205.00
C 106.69 204.71 100.81 203.66 96.00 203.00
C 95.18 202.89 92.74 202.65 92.00 203.00
C 92.60 208.03 91.20 216.29 92.00 221.00 C 92.80 225.71 89.58 235.53 94.00 237.00 Z"/>
</g>
<g fill="None" fill-opacity="0.0" stroke="#2A1702" stroke-opacity="1.00" stroke-width="0.3"><path d="
M 131.00 224.00
C 130.20 216.47 126.21 205.37 136.00 204.00
C 134.84 203.98 128.03 201.75 129.00 206.00 C 129.97 210.25 126.79 223.96 131.00 224.00 Z"/>
</g>
<g fill="None" fill-opacity="0.0" stroke="#372205" stroke-opacity="1.00" stroke-width="0.3"><path d="
M 112.00 205.00
C 116.00 205.00 120.00 205.00 124.00 205.00
C 123.34 216.18 125.32 228.57 123.00 239.00
C 126.55 238.86 124.79 229.83 125.00 225.00 C 125.21 220.17 125.10 212.51 124.97 207.03 C 124.84 201.55 114.72 204.88 112.00 205.00 Z"/>
</g>
<g fill="None" fill-opacity="0.0" stroke="#172019" stroke-opacity="1.00" stroke-width="0.3"><path d="
M 185.00 231.00
C 187.52 234.35 188.21 230.88 190.00 230.00
C 192.58 222.09 185.85 218.48 183.25 210.75 C 180.65 203.01 173.26 206.08 177.75 213.25 C 182.23 220.43 185.58 223.51 185.00 231.00 Z"/>
</g>
<g fill="None" fill-opacity="0.0" stroke="#19211B" stroke-opacity="1.00" stroke-width="0.3"><path d="
M 62.00 225.00
C 62.89 225.60 64.47 228.86 66.00 230.00
C 64.54 225.19 75.98 214.04 71.22 209.78 C 66.47 205.52 61.64 222.02 62.00 225.00 Z"/>
</g>
<g fill="None" fill-opacity="0.0" stroke="#23382B" stroke-opacity="1.00" stroke-width="0.3"><path d="
M 150.00 230.00
C 153.59 230.01 153.60 229.71 155.00 227.00
C 154.62 227.81 150.53 229.94 150.00 230.00 Z"/>
</g>
<g fill="None" fill-opacity="0.0" stroke="#AA8652" stroke-opacity="1.00" stroke-width="0.3"><path d="
M 99.00 238.00
C 100.91 240.53 102.67 239.06 105.00 239.00
C 104.90 238.98 105.00 238.00 105.00 238.00
C 102.25 238.17 101.32 239.37 99.00 237.00
C 99.00 237.00 98.76 237.68 99.00 238.00 Z"/>
</g>
<g fill="None" fill-opacity="0.0" stroke="#62451C" stroke-opacity="1.00" stroke-width="0.3"><path d="
M 105.00 238.00
C 105.00 238.00 104.90 238.98 105.00 239.00
C 106.98 238.95 109.03 239.20 111.00 239.00
C 108.95 238.91 107.94 235.56 105.00 238.00 Z"/>
</g>
<g fill="None" fill-opacity="0.0" stroke="#8AA5AE" stroke-opacity="1.00" stroke-width="0.3"><path d="
M 113.00 247.00
C 113.00 247.00 113.16 246.06 113.00 246.00
C 110.73 245.15 108.47 244.14 106.00 244.00
C 105.13 243.80 106.03 246.36 107.93 246.07 C 109.83 245.79 111.13 246.68 113.00 247.00 Z"/>
</g>

<g fill="#7D94A8" fill-opacity="1.00" stroke="None"><path d="
M 12.00 103.00
C 19.65 93.57 19.40 75.88 27.77 65.77 C 36.14 55.66 41.81 44.32 53.25 37.25 C 64.69 30.17 72.52 21.49 86.08 17.08 C 99.64 12.66 117.10 8.34 132.00 9.00 C 146.90 9.66 162.76 13.54 176.02 18.98 C 189.29 24.41 197.27 30.97 208.25 39.75 C 219.23 48.53 224.32 59.12 232.25 69.75 C 240.19 80.37 240.77 97.60 247.00 109.00
C 248.46 87.15 232.40 66.23 219.75 49.25 C 207.11 32.26 187.60 22.77 168.22 14.78 C 148.85 6.78 114.05 5.82 94.07 13.07 C 74.10 20.33 54.86 29.86 41.25 46.25 C 27.63 62.63 12.50 81.47 12.00 103.00 Z"/>
</g>
<g fill="#969696" fill-opacity="1.00" stroke="None"><path d="
M 12.00 103.00
C 12.00 103.00 11.97 103.50 12.00 104.00
C 12.92 117.73 10.23 132.78 11.00 147.00
C 11.54 156.94 15.04 167.04 19.00 176.00
C 21.91 182.58 26.24 188.31 29.30 194.70 C 32.37 201.09 39.63 205.63 43.00 209.00
C 42.93 202.56 49.01 196.07 52.30 190.30 C 55.59 184.54 54.66 176.21 58.00 170.00
C 51.95 164.09 58.36 156.84 54.69 150.31 C 51.03 143.77 50.82 134.33 52.93 126.93 C 55.03 119.52 53.65 113.69 50.00 107.00
C 49.25 103.97 49.34 101.96 50.00 99.00
C 51.60 91.77 54.93 86.15 62.00 86.00
C 61.27 86.02 64.36 84.71 64.00 85.00
C 64.24 84.80 64.00 84.00 64.00 84.00
C 59.69 81.68 64.55 79.33 64.00 76.00
C 58.58 75.89 47.66 68.64 55.08 65.08 C 62.51 61.52 66.25 59.40 74.00 58.00
C 82.15 47.73 77.95 27.18 91.70 20.70 C 105.44 14.21 129.29 21.40 144.00 21.00
C 146.67 21.00 149.33 21.00 152.00 21.00
C 163.09 21.00 170.50 20.46 173.92 32.08 C 177.35 43.69 181.41 47.42 183.00 59.00
C 190.36 60.72 212.68 74.11 196.00 78.00
C 199.60 81.68 197.19 89.26 192.00 84.00
C 193.38 86.36 195.26 89.39 196.00 92.00
C 198.80 87.55 205.99 99.06 205.00 104.00 C 204.00 108.95 203.06 116.94 200.22 122.22 C 197.38 127.50 201.02 136.66 195.68 141.68 C 190.34 146.70 195.68 152.74 194.00 159.00 C 192.32 165.26 192.23 170.17 192.00 177.00
C 202.60 185.47 209.40 196.91 216.00 208.00
C 221.64 198.77 230.05 193.96 234.25 183.25 C 238.46 172.55 243.77 163.15 245.93 150.93 C 248.08 138.70 247.00 122.78 247.00 110.00
C 247.00 110.00 246.97 109.50 247.00 109.00
C 240.77 97.60 240.19 80.37 232.25 69.75 C 224.32 59.12 219.23 48.53 208.25 39.75 C 197.27 30.97 189.29 24.41 176.02 18.98 C 162.76 13.54 146.90 9.66 132.00 9.00 C 117.10 8.34 99.64 12.66 86.08 17.08 C 72.52 21.49 64.69 30.17 53.25 37.25 C 41.81 44.32 36.14 55.66 27.77 65.77 C 19.40 75.88 19.65 93.57 12.00 103.00 Z"/>
</g>
<g fill="#0A0403" fill-opacity="1.00" stroke="None"><path d="
M 64.00 84.00
C 67.99 82.69 68.79 78.75 72.00 79.00
C 81.73 79.76 91.82 83.35 102.00 84.00
C 103.88 83.95 107.09 83.81 109.00 84.00
C 122.30 85.29 136.64 84.27 150.00 84.00
C 157.54 83.85 165.58 81.82 173.00 82.00 C 180.42 82.18 188.09 77.34 192.00 84.00
C 197.19 89.26 199.60 81.68 196.00 78.00
C 212.68 74.11 190.36 60.72 183.00 59.00
C 181.41 47.42 177.35 43.69 173.92 32.08 C 170.50 20.46 163.09 21.00 152.00 21.00
C 149.49 21.24 146.45 21.24 144.00 21.00
C 129.29 21.40 105.44 14.21 91.70 20.70 C 77.95 27.18 82.15 47.73 74.00 58.00
C 66.25 59.40 62.51 61.52 55.08 65.08 C 47.66 68.64 58.58 75.89 64.00 76.00
C 64.55 79.33 59.69 81.68 64.00 84.00 Z"/>
</g>
<g fill="#515152" fill-opacity="1.00" stroke="None"><path d="
M 152.00 21.00
C 149.33 21.00 146.67 21.00 144.00 21.00
C 146.45 21.24 149.49 21.24 152.00 21.00 Z"/>
</g>
<g fill="#260F00" fill-opacity="1.00" stroke="None"><path d="
M 96.00 25.00
C 105.87 23.58 117.02 25.00 127.00 25.00
C 123.07 23.33 115.66 23.70 111.00 24.00 C 106.34 24.30 99.52 22.40 96.00 25.00 Z"/>
</g>
<g fill="#BC9677" fill-opacity="1.00" stroke="None"><path d="
M 95.00 26.00
C 104.64 29.09 119.81 25.08 129.00 25.00
C 128.53 24.89 127.50 25.00 127.00 25.00
C 117.02 25.00 105.87 23.58 96.00 25.00
C 95.70 25.22 95.26 25.90 95.00 26.00 Z"/>
</g>
<g fill="#F4BA87" fill-opacity="1.00" stroke="None"><path d="
M 95.00 26.00
C 87.33 30.65 87.83 42.54 83.00 50.00
C 88.99 51.23 94.69 52.00 101.00 52.00
C 119.85 52.00 139.20 53.28 158.00 52.00
C 163.30 51.16 168.77 51.04 174.00 50.00
C 173.34 42.24 169.99 40.83 167.92 33.08 C 165.86 25.32 160.00 26.86 153.00 27.00
C 149.99 27.36 146.98 27.43 144.00 27.00
C 138.85 26.80 133.88 26.13 129.00 25.00
C 119.81 25.08 104.64 29.09 95.00 26.00 Z"/>
</g>
<g fill="#8B6E54" fill-opacity="1.00" stroke="None"><path d="
M 153.00 27.00
C 150.02 27.06 146.98 27.11 144.00 27.00
C 146.98 27.43 149.99 27.36 153.00 27.00 Z"/>
</g>
<g fill="#81654C" fill-opacity="1.00" stroke="None"><path d="
M 158.00 52.00
C 139.20 53.28 119.85 52.00 101.00 52.00
C 118.19 53.66 140.82 55.08 158.00 52.00 Z"/>
</g>
<g fill="#AD4F4F" fill-opacity="1.00" stroke="None"><path d="
M 93.00 63.00
C 99.34 63.59 107.86 62.47 114.00 63.00 C 120.14 63.53 130.67 62.19 136.00 63.00 C 141.33 63.81 154.55 60.05 155.00 66.00
C 155.41 65.81 156.00 66.00 156.00 66.00
C 158.15 64.41 167.16 64.18 169.00 65.00
C 169.75 65.33 170.17 65.85 171.00 66.00
C 170.97 65.99 170.09 64.17 170.00 64.00
C 167.82 59.79 173.00 61.41 175.00 60.00
C 180.25 55.10 165.09 56.84 159.00 58.00 C 152.91 59.16 141.68 56.93 134.00 58.00 C 126.32 59.07 116.58 56.35 108.00 58.00 C 99.42 59.65 94.14 55.07 85.00 56.00 C 75.86 56.94 85.85 62.33 93.00 63.00 Z"/>
</g>
<g fill="#551D1A" fill-opacity="1.00" stroke="None"><path d="
M 170.00 64.00
C 169.63 60.60 173.48 61.42 175.00 60.00
C 173.00 61.41 167.82 59.79 170.00 64.00 Z"/>
</g>
<g fill="#280000" fill-opacity="1.00" stroke="None"><path d="
M 154.00 67.00
C 154.30 66.78 154.74 66.12 155.00 66.00
C 154.55 60.05 141.33 63.81 136.00 63.00 C 130.67 62.19 120.14 63.53 114.00 63.00 C 107.86 62.47 99.34 63.59 93.00 63.00
C 101.09 64.70 116.88 62.90 125.00 64.00 C 133.12 65.10 151.16 59.88 154.00 67.00 Z"/>
</g>
<g fill="#EB9A7E" fill-opacity="1.00" stroke="None"><path d="
M 156.00 66.00
C 158.86 65.13 166.61 65.02 169.00 65.00
C 167.16 64.18 158.15 64.41 156.00 66.00 Z"/>
</g>
<g fill="#EDB787" fill-opacity="1.00" stroke="None"><path d="
M 108.00 78.00
C 121.33 78.00 134.67 78.00 148.00 78.00
C 163.33 76.36 180.23 78.00 194.00 72.00
C 188.63 62.88 178.73 67.39 171.00 66.00
C 170.17 65.85 169.75 65.33 169.00 65.00
C 166.61 65.02 158.86 65.13 156.00 66.00
C 154.93 72.09 142.22 68.12 137.00 69.00 C 131.78 69.88 121.12 68.42 115.00 69.00 C 108.88 69.58 99.56 68.79 94.00 68.00
C 83.53 68.05 72.75 61.50 63.00 68.00
C 75.44 76.51 92.52 78.00 108.00 78.00 Z"/>
</g>
<g fill="#66482C" fill-opacity="1.00" stroke="None"><path d="
M 154.00 67.00
C 147.50 71.79 132.52 66.82 124.00 68.00 C 115.48 69.18 102.84 68.34 94.00 68.00
C 99.56 68.79 108.88 69.58 115.00 69.00 C 121.12 68.42 131.78 69.88 137.00 69.00 C 142.22 68.12 154.93 72.09 156.00 66.00
C 156.00 66.00 155.41 65.81 155.00 66.00
C 154.74 66.12 154.30 66.78 154.00 67.00 Z"/>
</g>
<g fill="#36453D" fill-opacity="1.00" stroke="None"><path d="
M 64.00 84.00
C 64.00 84.00 64.24 84.80 64.00 85.00
C 67.85 84.04 68.68 79.52 72.00 79.00
C 68.79 78.75 67.99 82.69 64.00 84.00 Z"/>
</g>
<g fill="#735840" fill-opacity="1.00" stroke="None"><path d="
M 148.00 78.00
C 134.67 78.00 121.33 78.00 108.00 78.00
C 120.50 79.21 135.43 79.22 148.00 78.00 Z"/>
</g>
<g fill="#B0CFBD" fill-opacity="1.00" stroke="None"><path d="
M 64.00 85.00
C 64.36 84.71 61.27 86.02 62.00 86.00
C 59.37 92.41 51.77 101.14 57.00 108.00
C 59.52 102.92 59.48 97.09 62.00 92.00
C 70.72 93.40 76.37 85.78 86.00 86.00 C 95.63 86.22 103.26 88.81 112.02 91.98 C 120.79 95.14 131.33 91.98 139.00 88.00
C 140.05 87.24 140.93 85.69 142.00 85.00
C 131.17 84.33 119.01 86.33 109.00 84.00
C 106.69 83.78 104.32 84.15 102.00 84.00
C 91.82 83.35 81.73 79.76 72.00 79.00
C 68.68 79.52 67.85 84.04 64.00 85.00 Z"/>
</g>
<g fill="#B5D7C3" fill-opacity="1.00" stroke="None"><path d="
M 150.00 84.00
C 150.01 84.00 150.00 85.00 150.00 85.00
C 157.06 85.83 163.52 88.33 169.68 91.32 C 175.84 94.31 180.50 99.48 181.99 105.01 C 183.49 110.54 191.89 116.96 196.69 113.69 C 201.49 110.43 197.32 96.67 196.00 92.00
C 195.26 89.39 193.38 86.36 192.00 84.00
C 188.09 77.34 180.42 82.18 173.00 82.00 C 165.58 81.82 157.54 83.85 150.00 84.00 Z"/>
</g>
<g fill="#18281F" fill-opacity="1.00" stroke="None"><path d="
M 102.00 84.00
C 104.32 84.15 106.69 83.78 109.00 84.00
C 107.09 83.81 103.88 83.95 102.00 84.00 Z"/>
</g>
<g fill="#718479" fill-opacity="1.00" stroke="None"><path d="
M 139.00 88.00
C 142.81 86.36 145.82 85.49 150.00 85.00
C 150.00 85.00 150.01 84.00 150.00 84.00
C 136.64 84.27 122.30 85.29 109.00 84.00
C 119.01 86.33 131.17 84.33 142.00 85.00
C 140.93 85.69 140.05 87.24 139.00 88.00 Z"/>
</g>
<g fill="#080707" fill-opacity="1.00" stroke="None"><path d="
M 50.00 99.00
C 49.75 101.45 49.70 104.56 50.00 107.00
C 53.65 113.69 55.03 119.52 52.93 126.93 C 50.82 134.33 51.03 143.77 54.69 150.31 C 58.36 156.84 51.95 164.09 58.00 170.00
C 54.66 176.21 55.59 184.54 52.30 190.30 C 49.01 196.07 42.93 202.56 43.00 209.00
C 43.72 209.72 46.11 213.04 47.00 214.00
C 46.84 205.71 57.72 197.92 59.00 190.00
C 67.30 193.16 74.85 198.79 84.00 200.00
C 87.15 202.32 86.24 208.21 86.00 212.00 C 85.76 215.79 86.92 222.54 86.00 226.00 C 85.08 229.46 88.20 237.68 86.00 240.00
C 93.26 241.86 98.84 243.60 106.00 244.00
C 108.47 244.14 110.73 245.15 113.00 246.00
C 116.72 242.71 125.48 246.46 128.25 242.25 C 131.02 238.04 129.03 227.07 135.70 228.36 C 142.36 229.65 144.10 229.98 150.00 230.00
C 150.53 229.94 154.62 227.81 155.00 227.00
C 158.37 219.87 150.94 206.16 156.00 200.00
C 159.32 195.96 169.44 196.37 173.69 192.69 C 177.95 189.02 185.51 188.37 188.00 182.00
C 199.40 189.23 205.71 202.52 212.00 214.00
C 213.26 212.74 214.78 211.22 216.00 210.00
C 216.15 209.55 216.17 208.43 216.00 208.00
C 209.40 196.91 202.60 185.47 192.00 177.00
C 192.23 170.17 192.32 165.26 194.00 159.00 C 195.68 152.74 190.34 146.70 195.68 141.68 C 201.02 136.66 197.38 127.50 200.22 122.22 C 203.06 116.94 204.00 108.95 205.00 104.00 C 205.99 99.06 198.80 87.55 196.00 92.00
C 197.32 96.67 201.49 110.43 196.69 113.69 C 191.89 116.96 183.49 110.54 181.99 105.01 C 180.50 99.48 175.84 94.31 169.68 91.32 C 163.52 88.33 157.06 85.83 150.00 85.00
C 145.82 85.49 142.81 86.36 139.00 88.00
C 131.33 91.98 120.79 95.14 112.02 91.98 C 103.26 88.81 95.63 86.22 86.00 86.00 C 76.37 85.78 70.72 93.40 62.00 92.00
C 59.48 97.09 59.52 102.92 57.00 108.00
C 51.77 101.14 59.37 92.41 62.00 86.00
C 54.93 86.15 51.60 91.77 50.00 99.00 Z"/>
</g>
<g fill="#080013" fill-opacity="1.00" stroke="None"><path d="
M 112.00 97.00
C 116.18 97.81 121.17 98.00 126.00 98.00
C 126.50 98.00 127.50 98.02 128.00 98.00
C 142.78 90.93 166.01 85.07 177.00 103.00
C 173.62 95.08 157.51 85.91 147.01 89.01 C 136.51 92.11 124.69 98.01 112.00 97.00 Z"/>
</g>
<g fill="#330E51" fill-opacity="1.00" stroke="None"><path d="
M 128.00 98.00
C 135.22 97.70 141.87 91.55 149.00 91.00 C 156.13 90.45 164.24 96.31 169.25 98.75 C 174.25 101.20 182.26 111.43 177.00 115.00
C 182.75 113.16 179.13 107.98 177.00 103.00
C 166.01 85.07 142.78 90.93 128.00 98.00 Z"/>
</g>
<g fill="#913BD6" fill-opacity="1.00" stroke="None"><path d="
M 68.00 128.00
C 72.07 128.86 76.58 130.13 80.00 132.00
C 80.50 131.98 81.00 132.00 81.00 132.00
C 84.09 132.67 85.69 131.16 85.00 128.00
C 81.88 128.09 78.15 128.13 76.00 126.00
C 75.51 125.92 75.00 126.00 75.00 126.00
C 68.69 123.72 65.28 117.36 67.33 110.33 C 69.38 103.30 74.14 102.68 81.01 100.01 C 87.87 97.34 93.26 106.48 98.00 108.00
C 104.81 109.15 113.29 105.30 121.00 106.00
C 123.63 106.24 125.07 107.52 127.00 108.00
C 133.81 109.60 136.67 100.89 144.00 100.00 C 151.33 99.11 158.13 101.28 162.74 107.26 C 167.36 113.24 162.32 123.25 157.23 125.23 C 152.13 127.21 134.60 130.83 149.00 132.00 C 163.40 133.17 175.25 122.18 189.00 120.00
C 183.70 117.95 187.99 117.80 181.00 119.00 C 174.01 120.20 166.58 118.33 177.00 115.00
C 182.26 111.43 174.25 101.20 169.25 98.75 C 164.24 96.31 156.13 90.45 149.00 91.00 C 141.87 91.55 135.22 97.70 128.00 98.00
C 127.50 98.02 126.50 98.00 126.00 98.00
C 115.88 102.30 107.37 96.49 99.00 93.00
C 81.36 86.13 60.30 98.45 61.00 118.00
C 70.53 120.38 62.37 124.33 59.00 126.00
C 62.00 126.70 65.02 127.37 68.00 128.00 Z"/>
</g>

<g fill="#E8E8E9" fill-opacity="1.00" stroke="None"><path d="
M 79.00 121.00
C 79.68 120.95 80.88 120.01 81.00 120.00
C 77.23 115.77 79.29 108.06 85.00 107.00
C 75.10 101.89 67.46 117.72 79.00 121.00 Z"/>
</g>
<g fill="#340C53" fill-opacity="1.00" stroke="None"><path d="
M 127.00 108.00
C 125.07 107.52 123.63 106.24 121.00 106.00
C 122.61 106.29 124.87 107.71 127.00 108.00 Z"/>
</g>
<g fill="#CFCFCF" fill-opacity="1.00" stroke="None"><path d="
M 148.00 107.00
C 148.10 106.98 148.00 106.00 148.00 106.00
C 144.26 104.74 133.74 110.07 136.75 114.25 C 139.76 118.43 141.33 124.90 147.00 122.00
C 140.23 118.67 139.86 108.65 148.00 107.00 Z"/>
</g>
<g fill="#7A7A7A" fill-opacity="1.00" stroke="None"><path d="
M 148.00 107.00
C 149.56 106.66 152.17 107.75 153.00 106.00
C 151.35 106.13 149.65 105.82 148.00 106.00
C 148.00 106.00 148.10 106.98 148.00 107.00 Z"/>
</g>
<g fill="#BCBCBC" fill-opacity="1.00" stroke="None"><path d="
M 157.00 115.00
C 157.28 115.54 159.34 117.10 159.00 116.00
C 159.74 111.91 157.21 107.27 153.00 107.00
C 155.70 108.98 155.67 112.43 157.00 115.00 Z"/>
</g>
<g fill="#7C91A4" fill-opacity="1.00" stroke="None"><path d="
M 216.00 208.00
C 216.17 208.43 216.15 209.55 216.00 210.00
C 239.41 186.59 254.09 149.03 249.00 115.00
C 248.60 113.69 247.66 111.28 247.00 110.00
C 247.00 122.78 248.08 138.70 245.93 150.93 C 243.77 163.15 238.46 172.55 234.25 183.25 C 230.05 193.96 221.64 198.77 216.00 208.00 Z"/>
</g>
<g fill="#B5D6C2" fill-opacity="1.00" stroke="None"><path d="
M 103.00 139.00
C 103.31 136.48 103.13 133.54 103.00 131.00
C 102.69 124.82 103.17 121.18 110.00 119.00
C 112.57 118.18 113.50 118.29 116.00 119.00
C 133.27 121.39 113.17 137.68 124.75 145.25 C 136.34 152.81 140.96 134.73 135.98 125.02 C 130.99 115.32 124.27 110.14 112.01 111.01 C 99.75 111.88 94.14 117.85 91.00 129.00 C 87.86 140.15 98.95 155.37 103.00 139.00 Z"/>
</g>
<g fill="#B2B3B2" fill-opacity="1.00" stroke="None"><path d="
M 85.00 116.00
C 93.11 116.49 84.45 107.93 85.00 116.00 Z"/>
</g>
<g fill="#BDBABD" fill-opacity="1.00" stroke="None"><path d="
M 150.00 112.00
C 147.91 111.07 146.00 114.58 148.30 115.64 C 150.61 116.71 151.85 112.82 150.00 112.00 Z"/>
</g>

<g fill="#5E7268" fill-opacity="1.00" stroke="None"><path d="
M 110.00 119.00
C 111.71 118.71 114.28 118.76 116.00 119.00
C 113.50 118.29 112.57 118.18 110.00 119.00 Z"/>
</g>
<g fill="#8C8E8B" fill-opacity="1.00" stroke="None"><path d="
M 79.00 121.00
C 79.78 122.94 82.43 121.61 84.00 122.00
C 83.71 120.63 82.29 119.91 81.00 120.00
C 80.88 120.01 79.68 120.95 79.00 121.00 Z"/>
</g>
<g fill="#4D4D4E" fill-opacity="1.00" stroke="None"><path d="
M 118.00 128.00
C 118.03 122.48 107.97 122.49 108.00 128.00
C 111.33 128.00 114.67 128.00 118.00 128.00 Z"/>
</g>
<g fill="#0C0015" fill-opacity="1.00" stroke="None"><path d="
M 75.00 126.00
C 75.00 126.00 75.51 125.92 76.00 126.00
C 79.26 126.54 82.48 127.40 86.00 127.00
C 87.44 130.29 84.03 135.40 81.00 132.00
C 81.00 132.00 80.50 131.98 80.00 132.00
C 77.77 132.09 76.05 131.59 74.00 131.00
C 76.49 133.71 81.03 132.90 84.00 135.00
C 91.80 126.68 82.88 124.29 75.00 125.00
C 75.00 125.00 74.75 125.75 75.00 126.00 Z"/>
</g>
<g fill="#B7DAC5" fill-opacity="1.00" stroke="None"><path d="
M 104.00 170.00
C 109.32 170.20 114.68 170.00 120.00 170.00
C 136.31 169.16 153.43 164.68 167.75 157.75 C 182.08 150.83 193.29 141.81 194.00 125.00
C 186.35 126.95 179.08 128.91 171.69 131.69 C 164.31 134.48 158.90 139.48 150.00 138.00 C 141.10 136.52 143.51 149.20 136.02 152.02 C 128.54 154.85 119.76 152.14 118.00 144.00
C 107.98 139.65 105.79 151.93 98.01 152.99 C 90.23 154.05 84.89 144.33 85.00 138.00
C 75.58 137.45 67.20 133.25 58.00 132.00
C 53.95 157.69 83.33 169.21 104.00 170.00 Z"/>
</g>
<g fill="#34114F" fill-opacity="1.00" stroke="None"><path d="
M 81.00 132.00
C 84.03 135.40 87.44 130.29 86.00 127.00
C 82.48 127.40 79.26 126.54 76.00 126.00
C 78.15 128.13 81.88 128.09 85.00 128.00
C 85.69 131.16 84.09 132.67 81.00 132.00 Z"/>
</g>
<g fill="#3A0F59" fill-opacity="1.00" stroke="None"><path d="
M 74.00 131.00
C 76.05 131.59 77.77 132.09 80.00 132.00
C 76.58 130.13 72.07 128.86 68.00 128.00
C 69.76 128.62 71.85 130.38 74.00 131.00 Z"/>
</g>
<g fill="#5B6F64" fill-opacity="1.00" stroke="None"><path d="
M 103.00 139.00
C 103.74 136.03 103.49 133.95 103.00 131.00
C 103.13 133.54 103.31 136.48 103.00 139.00 Z"/>
</g>
<g fill="#9B8284" fill-opacity="1.00" stroke="None"><path d="
M 116.00 134.00
C 102.10 131.57 115.81 146.09 116.00 134.00 Z"/>
</g>
<g fill="#F4BB65" fill-opacity="1.00" stroke="None"><path d="
M 107.00 198.00
C 114.05 198.56 121.59 199.65 129.00 199.00
C 145.81 197.52 163.18 192.66 178.00 185.00
C 180.56 183.43 184.28 178.46 186.00 176.00
C 186.23 169.70 183.24 167.46 186.00 162.00
C 188.83 160.43 187.90 157.00 188.00 154.00
C 176.24 157.42 167.07 165.18 155.02 169.02 C 142.98 172.87 127.62 175.48 115.01 177.01 C 102.40 178.53 92.88 185.66 84.00 194.00
C 91.19 197.79 98.93 197.36 107.00 198.00 Z"/>
</g>
<g fill="#EFB865" fill-opacity="1.00" stroke="None"><path d="
M 69.00 188.00
C 72.03 189.04 76.65 189.82 80.00 189.00
C 86.25 184.27 92.74 179.26 99.00 175.00
C 85.09 174.22 73.08 166.61 61.00 161.00
C 60.02 166.66 71.96 175.65 61.00 177.00
C 60.21 182.94 64.57 185.74 69.00 188.00 Z"/>
</g>
<g fill="#B58D53" fill-opacity="1.00" stroke="None"><path d="
M 186.00 176.00
C 186.16 175.77 187.00 176.00 187.00 176.00
C 188.08 170.53 184.29 167.35 186.00 162.00
C 183.24 167.46 186.23 169.70 186.00 176.00 Z"/>
</g>
<g fill="#67796E" fill-opacity="1.00" stroke="None"><path d="
M 120.00 170.00
C 114.68 170.00 109.32 170.20 104.00 170.00
C 109.07 170.72 114.91 170.49 120.00 170.00 Z"/>
</g>
<g fill="#170901" fill-opacity="1.00" stroke="None"><path d="
M 179.00 172.00
C 174.71 169.48 169.96 177.89 164.69 179.69 C 159.43 181.50 155.61 182.97 148.03 185.03 C 140.44 187.08 149.29 192.60 154.78 189.78 C 160.27 186.96 166.60 185.48 170.25 183.25 C 173.91 181.02 183.38 174.56 179.00 172.00 Z"/>
</g>
<g fill="#684C27" fill-opacity="1.00" stroke="None"><path d="
M 178.00 185.00
C 180.69 183.61 185.80 178.88 187.00 176.00
C 187.00 176.00 186.16 175.77 186.00 176.00
C 184.28 178.46 180.56 183.43 178.00 185.00 Z"/>
</g>
<g fill="#B7DBC7" fill-opacity="1.00" stroke="None"><path d="
M 156.00 200.00
C 152.08 206.88 158.67 219.89 155.00 227.00
C 153.60 229.71 153.59 230.01 150.00 230.00
C 144.10 229.98 142.36 229.65 135.70 228.36 C 129.03 227.07 131.02 238.04 128.25 242.25 C 125.48 246.46 116.72 242.71 113.00 246.00
C 113.16 246.06 113.00 247.00 113.00 247.00
C 121.21 248.39 133.11 248.28 141.00 247.00 C 148.89 245.72 159.63 245.33 165.98 241.98 C 172.32 238.62 184.39 238.96 185.00 231.00
C 185.58 223.51 182.23 220.43 177.75 213.25 C 173.26 206.08 180.65 203.01 183.25 210.75 C 185.85 218.48 192.58 222.09 190.00 230.00
C 198.53 225.82 204.97 221.03 212.00 214.00
C 205.71 202.52 199.40 189.23 188.00 182.00
C 185.51 188.37 177.95 189.02 173.69 192.69 C 169.44 196.37 159.32 195.96 156.00 200.00 Z"/>
</g>
<g fill="#543811" fill-opacity="1.00" stroke="None"><path d="
M 80.00 189.00
C 76.65 189.82 72.03 189.04 69.00 188.00
C 72.69 189.88 75.70 190.71 80.00 189.00 Z"/>
</g>
<g fill="#B7DAC7" fill-opacity="1.00" stroke="None"><path d="
M 47.00 214.00
C 49.16 216.34 51.18 218.81 53.75 221.25 C 56.32 223.68 60.60 224.06 62.00 225.00
C 61.64 222.02 66.47 205.52 71.22 209.78 C 75.98 214.04 64.54 225.19 66.00 230.00
C 71.54 234.12 77.95 236.13 84.00 239.00
C 83.10 234.45 86.91 225.35 85.00 220.00 C 83.09 214.65 88.17 204.30 84.00 200.00
C 74.85 198.79 67.30 193.16 59.00 190.00
C 57.72 197.92 46.84 205.71 47.00 214.00 Z"/>
</g>
<g fill="#3C2206" fill-opacity="1.00" stroke="None"><path d="
M 129.00 199.00
C 121.59 199.65 114.05 198.56 107.00 198.00
C 112.93 199.25 121.51 200.52 129.00 199.00 Z"/>
</g>
<g fill="#4B5D54" fill-opacity="1.00" stroke="None"><path d="
M 84.00 239.00
C 84.88 239.42 84.77 239.69 86.00 240.00
C 88.20 237.68 85.08 229.46 86.00 226.00 C 86.92 222.54 85.76 215.79 86.00 212.00 C 86.24 208.21 87.15 202.32 84.00 200.00
C 88.17 204.30 83.09 214.65 85.00 220.00 C 86.91 225.35 83.10 234.45 84.00 239.00 Z"/>
</g>
<g fill="#6F8076" fill-opacity="1.00" stroke="None"><path d="
M 155.00 227.00
C 158.67 219.89 152.08 206.88 156.00 200.00
C 150.94 206.16 158.37 219.87 155.00 227.00 Z"/>
</g>
<g fill="#422C0D" fill-opacity="1.00" stroke="None"><path d="
M 99.00 238.00
C 98.76 237.68 99.00 237.00 99.00 237.00
C 97.68 236.55 95.41 237.02 94.00 237.00
C 93.76 237.00 91.94 238.91 91.00 238.00
C 91.67 226.50 89.67 213.68 92.00 203.00
C 92.74 202.65 95.18 202.89 96.00 203.00
C 94.93 200.94 91.88 202.47 90.00 202.00
C 89.34 210.20 90.88 218.84 90.00 227.00 C 89.12 235.16 90.69 241.52 99.00 238.00 Z"/>
</g>
<g fill="#F5BC66" fill-opacity="1.00" stroke="None"><path d="
M 136.00 204.00
C 126.21 205.37 130.20 216.47 131.00 224.00
C 132.37 224.01 138.27 221.70 139.32 223.66 C 140.37 225.63 149.02 221.98 149.00 222.00
C 149.00 215.33 149.00 208.67 149.00 202.00
C 146.99 200.65 138.40 203.67 136.00 204.00 Z"/>
</g>
<g fill="#8D6934" fill-opacity="1.00" stroke="None"><path d="
M 149.00 222.00
C 150.92 220.34 151.26 203.52 149.00 202.00
C 149.00 208.67 149.00 215.33 149.00 222.00 Z"/>
</g>
<g fill="#A47F4C" fill-opacity="1.00" stroke="None"><path d="
M 94.00 237.00
C 89.58 235.53 92.80 225.71 92.00 221.00 C 91.20 216.29 92.60 208.03 92.00 203.00
C 89.67 213.68 91.67 226.50 91.00 238.00
C 91.94 238.91 93.76 237.00 94.00 237.00 Z"/>
</g>
<g fill="#FBBF66" fill-opacity="1.00" stroke="None"><path d="
M 94.00 237.00
C 95.41 237.02 97.68 236.55 99.00 237.00
C 101.32 239.37 102.25 238.17 105.00 238.00
C 107.94 235.56 108.95 238.91 111.00 239.00
C 113.51 238.74 114.75 238.11 116.99 237.01 C 119.23 235.91 120.93 239.08 123.00 239.00
C 125.32 228.57 123.34 216.18 124.00 205.00
C 120.00 205.00 116.00 205.00 112.00 205.00
C 106.69 204.71 100.81 203.66 96.00 203.00
C 95.18 202.89 92.74 202.65 92.00 203.00
C 92.60 208.03 91.20 216.29 92.00 221.00 C 92.80 225.71 89.58 235.53 94.00 237.00 Z"/>
</g>
<g fill="#2A1702" fill-opacity="1.00" stroke="None"><path d="
M 131.00 224.00
C 130.20 216.47 126.21 205.37 136.00 204.00
C 134.84 203.98 128.03 201.75 129.00 206.00 C 129.97 210.25 126.79 223.96 131.00 224.00 Z"/>
</g>
<g fill="#372205" fill-opacity="1.00" stroke="None"><path d="
M 112.00 205.00
C 116.00 205.00 120.00 205.00 124.00 205.00
C 123.34 216.18 125.32 228.57 123.00 239.00
C 126.55 238.86 124.79 229.83 125.00 225.00 C 125.21 220.17 125.10 212.51 124.97 207.03 C 124.84 201.55 114.72 204.88 112.00 205.00 Z"/>
</g>
<g fill="#172019" fill-opacity="1.00" stroke="None"><path d="
M 185.00 231.00
C 187.52 234.35 188.21 230.88 190.00 230.00
C 192.58 222.09 185.85 218.48 183.25 210.75 C 180.65 203.01 173.26 206.08 177.75 213.25 C 182.23 220.43 185.58 223.51 185.00 231.00 Z"/>
</g>
<g fill="#19211B" fill-opacity="1.00" stroke="None"><path d="
M 62.00 225.00
C 62.89 225.60 64.47 228.86 66.00 230.00
C 64.54 225.19 75.98 214.04 71.22 209.78 C 66.47 205.52 61.64 222.02 62.00 225.00 Z"/>
</g>
<g fill="#23382B" fill-opacity="1.00" stroke="None"><path d="
M 150.00 230.00
C 153.59 230.01 153.60 229.71 155.00 227.00
C 154.62 227.81 150.53 229.94 150.00 230.00 Z"/>
</g>
<g fill="#AA8652" fill-opacity="1.00" stroke="None"><path d="
M 99.00 238.00
C 100.91 240.53 102.67 239.06 105.00 239.00
C 104.90 238.98 105.00 238.00 105.00 238.00
C 102.25 238.17 101.32 239.37 99.00 237.00
C 99.00 237.00 98.76 237.68 99.00 238.00 Z"/>
</g>
<g fill="#62451C" fill-opacity="1.00" stroke="None"><path d="
M 105.00 238.00
C 105.00 238.00 104.90 238.98 105.00 239.00
C 106.98 238.95 109.03 239.20 111.00 239.00
C 108.95 238.91 107.94 235.56 105.00 238.00 Z"/>
</g>
<g fill="#8AA5AE" fill-opacity="1.00" stroke="None"><path d="
M 113.00 247.00
C 113.00 247.00 113.16 246.06 113.00 246.00
C 110.73 245.15 108.47 244.14 106.00 244.00
C 105.13 243.80 106.03 246.36 107.93 246.07 C 109.83 245.79 111.13 246.68 113.00 247.00 Z"/>
</g>
</svg>